<?xml version="1.0" encoding="UTF-8"?>
<svg viewBox="0 0 1920 1080" xmlns="http://www.w3.org/2000/svg">
  <defs>
    <!-- Gradients -->
    <linearGradient id="mainGradient" x1="0%" y1="0%" x2="100%" y2="100%">
      <stop offset="0%" style="stop-color:#0c2d48;stop-opacity:1" />
      <stop offset="30%" style="stop-color:#145da0;stop-opacity:1" />
      <stop offset="60%" style="stop-color:#2e8bc0;stop-opacity:1" />
      <stop offset="100%" style="stop-color:#b1d4e0;stop-opacity:0.8" />
    </linearGradient>
    
    <radialGradient id="glowGradient" cx="50%" cy="50%" r="50%">
      <stop offset="0%" style="stop-color:#2e8bc0;stop-opacity:0.6" />
      <stop offset="50%" style="stop-color:#145da0;stop-opacity:0.3" />
      <stop offset="100%" style="stop-color:#0c2d48;stop-opacity:0.1" />
    </radialGradient>
    
    <!-- Filters -->
    <filter id="glow">
      <feGaussianBlur stdDeviation="3" result="coloredBlur"/>
      <feMerge> 
        <feMergeNode in="coloredBlur"/>
        <feMergeNode in="SourceGraphic"/>
      </feMerge>
    </filter>
    
    <!-- Patterns -->
    <pattern id="gridPattern" x="0" y="0" width="100" height="100" patternUnits="userSpaceOnUse">
      <path d="M 100 0 L 0 0 0 100" fill="none" stroke="#2e8bc0" stroke-width="0.5" opacity="0.3"/>
    </pattern>
    
    <pattern id="circuitPattern" x="0" y="0" width="200" height="200" patternUnits="userSpaceOnUse">
      <circle cx="50" cy="50" r="2" fill="#2e8bc0" opacity="0.4"/>
      <circle cx="150" cy="150" r="1.5" fill="#b1d4e0" opacity="0.3"/>
      <path d="M50,50 Q100,25 150,50 Q125,100 150,150 Q100,125 50,150 Q75,100 50,50" 
            fill="none" stroke="#2e8bc0" stroke-width="0.8" opacity="0.2"/>
    </pattern>
  </defs>
  
  <!-- Background base -->
  <rect width="1920" height="1080" fill="url(#mainGradient)"/>
  
  <!-- Grid overlay -->
  <rect width="1920" height="1080" fill="url(#gridPattern)" opacity="0.3"/>
  
  <!-- Circuit pattern -->
  <rect width="1920" height="1080" fill="url(#circuitPattern)" opacity="0.2"/>
  
  <!-- Floating geometric shapes -->
  <g opacity="0.15">
    <!-- Large floating circles -->
    <circle cx="300" cy="200" r="80" fill="#2e8bc0" opacity="0.3">
      <animateTransform attributeName="transform" type="translate" 
                        values="0,0; 20,30; 0,0" dur="6s" repeatCount="indefinite"/>
    </circle>
    
    <circle cx="1600" cy="300" r="60" fill="#b1d4e0" opacity="0.2">
      <animateTransform attributeName="transform" type="translate" 
                        values="0,0; -15,25; 0,0" dur="8s" repeatCount="indefinite"/>
    </circle>
    
    <!-- Hexagons -->
    <polygon points="800,100 830,120 830,160 800,180 770,160 770,120" fill="#145da0" opacity="0.4">
      <animateTransform attributeName="transform" type="rotate" 
                        values="0 800 140; 360 800 140" dur="20s" repeatCount="indefinite"/>
    </polygon>
    
    <polygon points="1200,800 1240,825 1240,875 1200,900 1160,875 1160,825" fill="#2e8bc0" opacity="0.3">
      <animateTransform attributeName="transform" type="rotate" 
                        values="0 1200 862; -360 1200 862" dur="15s" repeatCount="indefinite"/>
    </polygon>
    
    <!-- Triangles -->
    <polygon points="500,800 520,770 540,800" fill="#b1d4e0" opacity="0.3">
      <animateTransform attributeName="transform" type="translate" 
                        values="0,0; 10,-20; 0,0" dur="7s" repeatCount="indefinite"/>
    </polygon>
    
    <polygon points="1400,600 1430,570 1460,600" fill="#2e8bc0" opacity="0.4">
      <animateTransform attributeName="transform" type="translate" 
                        values="0,0; -15,25; 0,0" dur="9s" repeatCount="indefinite"/>
    </polygon>
  </g>
  
  <!-- Glowing orbs -->
  <g opacity="0.6">
    <circle cx="400" cy="600" r="120" fill="url(#glowGradient)" filter="url(#glow)">
      <animate attributeName="opacity" values="0.3;0.7;0.3" dur="4s" repeatCount="indefinite"/>
    </circle>
    
    <circle cx="1400" cy="200" r="90" fill="url(#glowGradient)" filter="url(#glow)">
      <animate attributeName="opacity" values="0.5;0.8;0.5" dur="5s" repeatCount="indefinite"/>
    </circle>
    
    <circle cx="1600" cy="700" r="70" fill="url(#glowGradient)" filter="url(#glow)">
      <animate attributeName="opacity" values="0.4;0.6;0.4" dur="6s" repeatCount="indefinite"/>
    </circle>
  </g>
  
  <!-- Network connections -->
  <g opacity="0.2">
    <path d="M300,200 Q600,100 800,100 Q1000,100 1200,800 Q1400,900 1600,700" 
          fill="none" stroke="#2e8bc0" stroke-width="1">
      <animate attributeName="stroke-dasharray" values="0,1000; 1000,1000; 0,1000" dur="8s" repeatCount="indefinite"/>
    </path>
    
    <path d="M500,800 Q800,600 1400,600 Q1600,500 1600,300" 
          fill="none" stroke="#b1d4e0" stroke-width="0.8">
      <animate attributeName="stroke-dasharray" values="0,800; 800,800; 0,800" dur="10s" repeatCount="indefinite"/>
    </path>
  </g>
  
  <!-- Particle effects -->
  <g opacity="0.3">
    <circle cx="100" cy="100" r="1" fill="#b1d4e0">
      <animateTransform attributeName="transform" type="translate" 
                        values="0,0; 1800,980; 0,0" dur="12s" repeatCount="indefinite"/>
    </circle>
    
    <circle cx="1800" cy="100" r="1.5" fill="#2e8bc0">
      <animateTransform attributeName="transform" type="translate" 
                        values="0,0; -1700,980; 0,0" dur="15s" repeatCount="indefinite"/>
    </circle>
    
    <circle cx="960" cy="50" r="0.8" fill="#145da0">
      <animateTransform attributeName="transform" type="translate" 
                        values="0,0; 0,1030; 0,0" dur="10s" repeatCount="indefinite"/>
    </circle>
  </g>
  
  <!-- 3D-like mesh overlay -->
  <g opacity="0.1">
    <path d="M0,0 L1920,0 L1920,1080 L0,1080 Z M200,200 L1720,200 L1720,880 L200,880 Z M400,400 L1520,400 L1520,680 L400,680 Z" 
          fill="none" stroke="#2e8bc0" stroke-width="0.5"/>
  </g>
</svg>